<svg width="1280" height="720" viewBox="0 0 1280 720" fill="none" xmlns="http://www.w3.org/2000/svg">
  <defs>
    <linearGradient id="bg" x1="120" y1="40" x2="1120" y2="680" gradientUnits="userSpaceOnUse">
      <stop stop-color="#123A4A"/>
      <stop offset="1" stop-color="#0A1528"/>
    </linearGradient>
    <linearGradient id="accent" x1="220" y1="220" x2="1060" y2="560" gradientUnits="userSpaceOnUse">
      <stop stop-color="#35D0FF" stop-opacity="0.55"/>
      <stop offset="1" stop-color="#B6FF5C" stop-opacity="0.45"/>
    </linearGradient>
    <linearGradient id="card" x1="0" y1="0" x2="0" y2="1">
      <stop stop-color="#0F2036" stop-opacity="0.92"/>
      <stop offset="1" stop-color="#091425" stop-opacity="0.96"/>
    </linearGradient>
    <filter id="blurSoft" x="0" y="0" width="1280" height="720" filterUnits="userSpaceOnUse" color-interpolation-filters="sRGB">
      <feGaussianBlur stdDeviation="42"/>
    </filter>
  </defs>

  <rect width="1280" height="720" rx="28" fill="url(#bg)"/>

  <g opacity="0.45" filter="url(#blurSoft)">
    <circle cx="250" cy="160" r="140" fill="#35D0FF"/>
    <circle cx="1020" cy="580" r="170" fill="#B6FF5C"/>
  </g>

  <rect x="100" y="90" width="1080" height="540" rx="30" fill="url(#accent)" fill-opacity="0.2" stroke="#FFFFFF" stroke-opacity="0.15"/>

  <g>
    <rect x="160" y="170" width="320" height="360" rx="22" fill="url(#card)" stroke="#FFFFFF" stroke-opacity="0.16"/>
    <text x="192" y="224" fill="#DFF5FF" font-size="24" font-family="Sora, Arial, sans-serif">Temps manuel</text>
    <text x="192" y="282" fill="#FFFFFF" font-size="58" font-weight="700" font-family="Space Grotesk, Arial, sans-serif">-12h</text>
    <text x="192" y="318" fill="#9FC9D8" font-size="22" font-family="Sora, Arial, sans-serif">par semaine</text>
    <line x1="192" y1="356" x2="440" y2="356" stroke="#FFFFFF" stroke-opacity="0.2"/>
    <circle cx="222" cy="412" r="14" fill="#35D0FF"/>
    <text x="252" y="420" fill="#E6F8FF" font-size="22" font-family="Sora, Arial, sans-serif">Automatisation des taches</text>
    <circle cx="222" cy="462" r="14" fill="#B6FF5C"/>
    <text x="252" y="470" fill="#E6F8FF" font-size="22" font-family="Sora, Arial, sans-serif">Actions 24/7 sans friction</text>
  </g>

  <g>
    <rect x="530" y="130" width="590" height="190" rx="22" fill="url(#card)" stroke="#FFFFFF" stroke-opacity="0.16"/>
    <text x="566" y="186" fill="#DFF5FF" font-size="24" font-family="Sora, Arial, sans-serif">Croissance et rentabilite</text>
    <path d="M566 260L688 226L802 238L930 178L1040 194" stroke="#B6FF5C" stroke-width="8" stroke-linecap="round" stroke-linejoin="round"/>
    <circle cx="1040" cy="194" r="10" fill="#B6FF5C"/>
    <text x="952" y="250" fill="#FFFFFF" font-size="44" font-weight="700" font-family="Space Grotesk, Arial, sans-serif">3.6x ROI</text>
  </g>

  <g>
    <rect x="530" y="350" width="590" height="180" rx="22" fill="url(#card)" stroke="#FFFFFF" stroke-opacity="0.16"/>
    <text x="566" y="406" fill="#DFF5FF" font-size="24" font-family="Sora, Arial, sans-serif">Systeme IA connecte</text>
    <rect x="566" y="428" width="118" height="64" rx="12" fill="#16314A" stroke="#35D0FF" stroke-opacity="0.65"/>
    <text x="598" y="468" fill="#EAFBFF" font-size="26" font-weight="700" font-family="Space Grotesk, Arial, sans-serif">CRM</text>
    <rect x="738" y="428" width="150" height="64" rx="12" fill="#183122" stroke="#B6FF5C" stroke-opacity="0.65"/>
    <text x="770" y="468" fill="#F4FFE6" font-size="26" font-weight="700" font-family="Space Grotesk, Arial, sans-serif">IA Agent</text>
    <rect x="942" y="428" width="142" height="64" rx="12" fill="#1E2438" stroke="#FFFFFF" stroke-opacity="0.35"/>
    <text x="968" y="468" fill="#F1F5FF" font-size="26" font-weight="700" font-family="Space Grotesk, Arial, sans-serif">Paiement</text>
    <path d="M688 460H734" stroke="#A4D8E9" stroke-width="4" stroke-linecap="round"/>
    <path d="M892 460H938" stroke="#C9E6AA" stroke-width="4" stroke-linecap="round"/>
  </g>
</svg>
